<svg xmlns="http://www.w3.org/2000/svg" viewBox="0 0 30 10"><defs><style>.cls-1{fill:#4d05e8;}</style></defs><title>logo_genereux</title><g id="Calque_2" data-name="Calque 2"><g id="Calque_1-2" data-name="Calque 1"><path class="cls-1" d="M29.44.42a1.72,1.72,0,0,0-2.22,0L22.41,4.27A3.33,3.33,0,0,1,20.33,5H14.17a.84.84,0,1,1,0-1.67h4.07A1.74,1.74,0,0,0,20,2,1.67,1.67,0,0,0,18.33,0H10A6.09,6.09,0,0,0,6.14,1.37l-2.42,2H.83A.84.84,0,0,0,0,4.17v5A.83.83,0,0,0,.83,10H19.42a3.36,3.36,0,0,0,2.08-.73L29.38,3A1.67,1.67,0,0,0,29.44.42Z"/></g></g></svg>