<?xml version="1.0" encoding="utf-8"?>
<!-- Réalisé par Ninatasia - DesignEya.FR -->
<svg version="1.1" id="Calque_1" xmlns="http://www.w3.org/2000/svg" xmlns:xlink="http://www.w3.org/1999/xlink" x="0px" y="0px"
	 viewBox="0 0 500 500" style="enable-background:new 0 0 500 500;" xml:space="preserve">
<style type="text/css">
	.st0{fill:#303030;}
	.st1{fill:#505E9B;}
	.st2{display:none;}
	.st3{display:inline;}
	.st4{fill:#146EB1;}
	.st5{fill:none;stroke:#146EB1;stroke-width:5;stroke-miterlimit:10;}
	.st6{fill:#389EE0;}
	.st7{fill:none;stroke:#146EB1;stroke-width:5;stroke-linecap:round;stroke-linejoin:round;stroke-miterlimit:10;}
	.st8{fill:none;}
	.st9{fill:none;stroke:#5382A1;stroke-width:5;stroke-miterlimit:10;}
	.st10{fill:none;stroke:#303030;stroke-width:5;stroke-linejoin:round;stroke-miterlimit:10;}
	.st11{fill:#5382A1;}
	.st12{fill:#E76E00;}
	.st13{fill:none;stroke:#5382A1;stroke-width:3;stroke-linecap:round;stroke-linejoin:round;stroke-miterlimit:10;}
	.st14{fill:none;stroke:#DD4B25;stroke-width:5.3598;stroke-linecap:round;stroke-linejoin:round;stroke-miterlimit:10;}
	.st15{fill:none;stroke:#DD4B25;stroke-width:4.0111;stroke-linecap:round;stroke-linejoin:round;stroke-miterlimit:10;}
	.st16{fill:#DD4B25;}
	.st17{fill:none;stroke:#DE9D27;stroke-width:4.334;stroke-miterlimit:10;}
	.st18{fill:none;stroke:#DE9D27;stroke-width:4.334;stroke-linecap:round;stroke-linejoin:round;stroke-miterlimit:10;}
	.st19{fill:none;stroke:#DE9D27;stroke-width:2.6636;stroke-linecap:round;stroke-linejoin:round;stroke-miterlimit:10;}
	.st20{fill:none;stroke:#DE9D27;stroke-width:2.6004;stroke-linecap:round;stroke-linejoin:round;stroke-miterlimit:10;}
	.st21{fill:#DE9D27;}
	.st22{fill:none;stroke:#DE9D27;stroke-width:2.4147;stroke-miterlimit:10;}
	.st23{fill:none;stroke:#DE9D27;stroke-width:2.1533;stroke-linecap:round;stroke-linejoin:round;stroke-miterlimit:10;}
	.st24{fill:none;stroke:#DE9D27;stroke-width:1.7336;stroke-miterlimit:10;}
</style>
<g>
	<g>
		<circle class="st0" cx="250" cy="250" r="250"/>
	</g>
	<g>
		<path class="st1" d="M135.2,267.5c1.1-0.6,9.8-5.6,8.8-7.7c-13.1-0.2-23.1,11.1-15,19.9c3.1,10.9,23.1,3.4,19.9-7.3
			C146.1,263.2,136.4,267,135.2,267.5z M147,277.2c0-0.3-0.8-6.6-5.8-6.6c-4.1-0.1-4.5,2.8-4.5,2.8l3.4,2l-3.2,2.1
			c0,0,2.7,5.7,8.2,3.2c-1.4,1.5-3.5,2.4-5.9,2.4c-4.3,0-7.8-1.9-7.8-5.8c0-3.9,3.5-8.3,7.8-8.3c4.3,0,7.8,1.7,7.8,7.1
			C147.1,276.4,147.1,276.8,147,277.2z M144.7,276.9c-0.5,0.1-0.9,0-1.3-0.4c-0.3-0.3-0.6-0.7-0.7-1.1c-0.3-1.1,0-2.1,0.8-2.4
			c0.8-0.3,1.7,0.4,2.1,1.5C145.8,275.6,145.5,276.6,144.7,276.9z"/>
		<path class="st1" d="M145.2,248.9c0,0,1.2,0.7,1.9-0.8c0.8-1.4-1.4-1.7-1.4-1.7s-18.7-6.5-29.5,6.3c-1.5,2.4,1.6,3.9,1.6,3.9
			s1.8,1.3,3.8-1.3C123.7,252.8,133.1,245.6,145.2,248.9z"/>
		<path class="st1" d="M404.1,266.9C404.1,266.8,404.1,266.8,404.1,266.9c1.2-1.1,2.5-2.6,2.8-4.5c0.3-1.5,0.1-3.8-2.5-6.3
			c0,0-0.1-0.1-0.1-0.1c-7.1-5.9-17.9-4.7-21.6-4.1c0,0,0,0,0,0l-10.5-6.6c-3.3-2.1-7-3.8-10.7-4.8c-3.8-1.1-7.7-1.7-11.7-1.7H346
			c0,0,0,0,0,0c-5.7-5.9-12.5-10.8-20.2-14.7c-12.7-6.3-27.8-9.5-44.7-9.5h0l-54.9,0.9c0,0,0,0,0,0c-9.3-13.1-19.6-14-28.6-13
			c-2.3,0.3-5.7,1.5-9.5,3.2c0,0,0,0,0,0c-1.9-1.9-6.1-4.2-14.6-4.2c-11.7,0-25.7,14.5-28.9,17.9c0,0,0,0,0,0
			c-19.6,2.9-33.9,9.8-42.6,20.8c-9.7,12.2-9.9,26.5-10,33.4c0,1.3,0,2.4-0.1,3.1c0,0.1,0,0.2,0,0.3c0,1.1,0.5,109.2,0.5,115.7
			c0,0.4,0,0.8,0,1.3c-0.1,4-0.1,9,3.6,12.7c3.1,3.2,8.2,4.7,15.7,4.7c7.5,0,13-1.9,16.2-5.5c3-3.4,3-7.2,2.9-8.3c0,0,0,0,0,0
			l4.6-51.2c0.7-8.2,3.4-14,8.2-17c3.7-2.4,8.5-3,13.4-2.8c0,0,0,0,0,0v51.1c0,0.8-0.2,5.9,1.9,11.8c0,0,0,0,0,0
			c0.2,0.7,0.5,1.3,0.8,2c0.4,0.8,0.8,1.7,1.3,2.5c0,0,0,0,0,0c3.4,5.8,9.8,12,22.2,13.6c0,0,0,0,0,0c0.6,0.8,1.2,1.6,2,2.4
			c6.3,6.4,17.4,9.7,32.8,9.7c14.9,0,25.5-3.6,31.6-10.7c5.8-6.8,5.3-14.5,5.1-15.9v0l0-34.2c0,0,0,0,0,0c2.3,0.4,5.7,1,10.2,1.2
			c0,0,0,0,0,0c0,1,0,24.3,0,24.3c0,0.6,0,6,3.5,11.6c3.3,5.2,10.3,11.6,25.1,12.6c0,0,0,0,0,0c6.6,6.2,17.3,9.3,31.8,9.3
			c15.3,0,26.1-3.5,32.1-10.4c5.2-6,4.9-12.5,4.7-13.8v0v-75c0-0.5-0.2-1.1-0.5-1.5c0,0,0,0,0,0c7.9-21.6,5.7-46.2-5.8-65.5
			c0,0,0,0,0-0.1c2.1,0,4.2,0.4,6.1,1.1c2,0.7,3.8,1.8,5.4,3.1l7.5,6.2c0,0,0,0,0,0c-0.3,3.5-0.1,12.4,7.3,19.2c0,0,0.1,0.1,0.1,0.1
			c1.5,1.3,6.2,5.1,10,3.1c1.7-0.9,2.5-2.6,2.8-4.3c0,0,0,0,0.1,0c3.6,1.8,8.7,3.4,11.8-0.4C410.3,275.3,406.8,269.9,404.1,266.9z
			 M173.2,206.5c4.9,0,7.7,0.8,9.4,1.7c0,0,0,0,0,0.1c-6,3.1-12.3,6.8-16.8,9.6c0,0,0,0,0,0c-4.7,0-9.1,0.3-13.3,0.6c0,0,0,0,0-0.1
			C158.2,213,166.7,206.5,173.2,206.5z M180,401.7c-2.1-0.5-4-1.2-5.7-2c0,0-0.1,0-0.1-0.1c-0.6-0.3-1.1-0.6-1.6-0.9
			c-0.1-0.1-0.2-0.1-0.3-0.2c0,0,0,0,0,0h0c-0.2-0.1-0.4-0.3-0.6-0.4c-1.1-0.8-2.2-1.6-3.1-2.5c-0.5-0.5-0.9-0.9-1.3-1.4
			c-0.5-0.6-1-1.3-1.5-1.9c0,0-0.1-0.1-0.1-0.1c-0.2-0.3-0.4-0.7-0.6-1c-0.4-0.6-0.7-1.2-1-1.8v0c-2.7-5.8-2.4-11.3-2.4-11.7
			c0-0.1,0-0.1,0-0.2v-50.6c0,0,0,0,0,0c6.5,1,12.8,3.2,17.1,4.7c0,0,0,0,0,0c0,12.5,0,41.2,0,54.6v7.4c0,0.1,0,0.3,0,0.4
			c0,0,0,0,0,0c0,0.2,0,0.4,0,0.7v0C179,396.4,179.1,398.9,180,401.7C180,401.7,180,401.7,180,401.7z M288.8,402.7
			c-2.8-0.5-5.2-1.3-7.2-2.2c-0.2-0.1-0.4-0.2-0.6-0.3c-0.2-0.1-0.4-0.2-0.5-0.3h0c-0.2-0.1-0.5-0.2-0.7-0.3
			c-0.4-0.2-0.8-0.4-1.1-0.6c0,0,0,0,0,0c-1-0.6-1.9-1.3-2.7-2c-0.7-0.6-1.3-1.2-1.8-1.8c-0.2-0.3-0.5-0.5-0.7-0.8
			c-0.2-0.3-0.4-0.5-0.6-0.8c-0.1-0.1-0.2-0.3-0.3-0.4c-0.4-0.6-0.7-1.1-1-1.7v-0.1c-1.9-3.7-1.9-6.9-1.9-7.2v-24.4c0,0,0,0,0,0
			c4.7-0.1,10.3-0.5,16.7-1.5c0,0,0,0,0,0v35.2c0,0.2,0,0.5,0,1.1c0,0.1,0,0.2,0,0.3v0C286.7,396.6,287.2,399.4,288.8,402.7
			C288.8,402.6,288.8,402.6,288.8,402.7z M355.9,317.5c-0.5,1.2,0,2.5,1,3.1c0,0,0,0,0,0v72.9c0,0.1,0,0.2,0,0.3
			c0,0.2,0.6,5.3-3.6,10.1c-5,5.6-14.7,8.6-28.2,8.6c-1.1,0-2.1,0-3.2-0.1c-3.2-0.1-6.2-0.4-8.9-0.9c-0.1,0-0.1,0-0.2,0
			c-0.3,0-0.5-0.1-0.8-0.2c-0.5-0.1-0.9-0.2-1.3-0.3c-3.4-0.7-6.4-1.8-8.9-3.1c-0.4-0.2-0.8-0.4-1.1-0.6h0c-0.2-0.1-0.4-0.2-0.5-0.3
			c-0.4-0.3-0.9-0.6-1.3-0.9c-0.4-0.3-0.8-0.6-1.3-1c0,0-0.1-0.1-0.1-0.1c-0.5-0.4-1-0.9-1.5-1.4c-3.1-3.2-4-6.5-4.3-8.5
			c-0.2-1-0.1-1.6-0.1-1.7v-44c0-1.4-1.1-2.5-2.5-2.5c-1.4,0-2.5,1.1-2.5,2.5v3.4c0,0,0,0,0,0c-17,2.8-28.1,1.1-32,0.2c0,0,0,0,0,0
			c0-0.1,0-2.2,0-3.7c0-1.2-0.8-2.3-1.9-2.6c-1.7-0.4-3.1,0.9-3.1,2.4V393c0,0.1,0,0.3,0,0.4c0,0.1,0.9,6.4-3.9,12.1
			c-5,5.9-14.4,8.9-27.7,8.9c-1.2,0-2.3,0-3.4-0.1c-1.5-0.1-2.9-0.1-4.3-0.3c0,0,0,0,0,0c0,0-0.1,0-0.1,0c-1.6-0.1-3.2-0.3-4.7-0.6
			c0,0-0.1,0-0.1,0c-0.3,0-0.6-0.1-0.8-0.1c-0.4-0.1-0.8-0.1-1.2-0.2c-3.8-0.8-7-1.9-9.7-3.3c-0.3-0.2-0.6-0.3-0.8-0.5c0,0,0,0,0,0
			v0c-0.5-0.3-1-0.6-1.4-0.9c-0.1-0.1-0.2-0.1-0.3-0.2c0,0,0,0,0,0c-0.8-0.6-1.6-1.3-2.3-1.9l-0.1-0.1c-4.5-4.7-4.5-10.1-4.4-12.4
			v-5.1l0-58.6c0-0.9-0.5-1.6-1.3-2c-3.2-1.4-6.5-2.7-9.8-3.7c-3.2-1-6.7-1.9-10.3-2.4c0,0,0,0,0-0.1c1.4-1,3-2.2,4.5-3.9
			c4.3-4.6,9.4-13.3,9.5-28.6c0,0,0,0,0,0c2.8-0.9,5.3-3.1,7.4-6.7c0.5-0.8,0.2-1.8-0.6-2.3c-0.8-0.5-1.8-0.2-2.3,0.6
			c-2,3.3-4.2,5.2-6.6,5.4c-3.9,0.4-7.4-3.4-7.5-3.5c-0.6-0.7-1.7-0.8-2.4-0.1c-0.7,0.6-0.8,1.7-0.1,2.4c0.2,0.2,3.8,4.2,8.6,4.6
			c0,0,0,0,0,0c-0.2,11-3.1,19.9-8.5,25.8c-3.7,4.1-7.5,5.5-8.3,5.8c0,0,0,0,0,0c-0.5,0-1.1,0-1.6,0c-5.1,0-10.1,1-14.3,3.7
			c-6.2,3.9-9.7,11-10.5,20.8l-4.6,51.4c0,0.2,0,0.3,0,0.5c0,0.1,0.2,2.6-1.7,4.8c-2.2,2.4-6.5,3.8-12.4,3.8c-5.9,0-10-1.1-12.1-3.2
			c-2.2-2.3-2.2-5.8-2.2-9.1c0-0.5,0-0.9,0-1.3c0-6.5-0.4-111.4-0.5-115.6v0c0.1-0.9,0.1-2,0.1-3.4c0.1-12.3,0.5-42.5,49-49.3
			c0.1,0,0.2,0,0.3,0c3.8-0.5,8-0.9,12.4-1.1l6.2-0.1c1.8-0.1,3.5-0.6,5-1.5c0,0,0,0,0,0c9.5-5.8,23-13.4,28.2-14
			c8.3-0.9,17.1,0,25.3,12.9c8.1,12.9,13.5,53.7,0.3,68.9c0,0,0,0,0,0c-2.7,2.6-5.5,4.2-8.2,5.4c-2.8,1.1-5.5,1.7-8,2.3
			c-6.8,1.5-13.9,3.2-14,14.8c0,1.4,1,2.6,2.3,2.7c1.5,0.1,2.7-1.1,2.7-2.5c0-7.8,3.1-8.5,10.1-10.1c5.5-1.3,12.5-2.8,18.9-9.2
			c0,0,0,0,0,0c9-10.2,9.6-28.5,9.1-38.4c-0.6-13-3.4-25.7-7.3-33.7c0,0,0,0,0-0.1l51.9-0.8c30.5,0,54.8,11.2,68.5,31.6
			C362.4,270.2,364.8,295.6,355.9,317.5z M390.6,256.4c3.5,0.2,7.5,1,10.4,3.3c0.4,0.4,1,1.1,0.9,1.7c-0.1,0.6-0.8,1.3-1.5,1.8
			c0,0,0,0,0,0C398.2,261.5,394.6,258.8,390.6,256.4C390.6,256.5,390.6,256.4,390.6,256.4z M389.7,279.6
			C389.7,279.6,389.7,279.6,389.7,279.6c-0.3,0-1.5-0.1-4.3-2.5c0,0,0,0,0,0c-1.9-1.8-3.2-3.7-4.1-5.7c-0.9-1.9-1.3-3.8-1.5-5.5
			c0,0,0,0,0.1,0c0.8,0.9,1.8,2,2.8,3.1c2.8,3,5.7,5.7,7.5,7.3c0,0,0,0,0,0C390.3,277.9,390,279.2,389.7,279.6z M403,276.2
			c-1.1,1.3-4.9-0.3-7.8-2.2c0,0,0,0,0,0c-0.3-0.3-1.4-1.3-2.9-2.7c-1.5-1.4-3.4-3.3-5.4-5.3c-4-4.2-5.9-6.8-6.8-8.4c0,0,0,0,0,0
			c7,1.3,15.9,8.4,19,11.4l0.1,0.1C401.7,271.5,404,275,403,276.2z"/>
	</g>
	<g>
		<path class="st1" d="M205.8,103.3c0,10.6-6.5,22.2-26.7,22.2h-18.2v21.4c0,2.5-2.1,4.5-4.6,4.5c-2.5,0-4.5-2-4.5-4.5V85.7
			c0-2.5,2-4.6,4.5-4.6h22.8C199.3,81.1,205.8,92.7,205.8,103.3z M196.7,103.3c0-6.5-3.6-13.6-18.5-13.6h-17.3v27.2h17.3
			C193.1,116.9,196.7,109.8,196.7,103.3z"/>
		<path class="st1" d="M274.8,85.2v61.7c0,2.5-2.1,4.5-4.6,4.5c-2.5,0-4.5-2-4.5-4.5v-26.6h-37.9v26.6c0,2.5-2.1,4.5-4.6,4.5
			s-4.5-2-4.5-4.5V85.2c0-2.5,2-4.6,4.5-4.6s4.6,2.1,4.6,4.6v26.6h37.9V85.2c0-2.5,2-4.6,4.5-4.6C272.7,80.6,274.8,82.7,274.8,85.2z
			"/>
		<path class="st1" d="M348.2,103.3c0,10.6-6.5,22.2-26.7,22.2h-18.2v21.4c0,2.5-2.1,4.5-4.6,4.5s-4.5-2-4.5-4.5V85.7
			c0-2.5,2-4.6,4.5-4.6h22.8C341.7,81.1,348.2,92.7,348.2,103.3z M339.1,103.3c0-6.5-3.6-13.6-18.5-13.6h-17.3v27.2h17.3
			C335.5,116.9,339.1,109.8,339.1,103.3z"/>
	</g>
</g>
<g class="st2">
	<g class="st3">
		<circle class="st0" cx="250" cy="250" r="250"/>
	</g>
	<g class="st3">
		<path class="st4" d="M218.5,142.6c-0.1,1.9-0.9,2.9-2.2,3.6c-6.2,3.5-13,6.2-22.8,6.2c-19.9,0-35-13.6-35-35.9
			c0-22.3,15.1-35.9,35-35.9c9.8,0,16.6,2.7,22.8,6.2c1.3,0.7,2.1,1.7,2.2,3.6c0.1,2.1-1.5,4-4,4c-0.5,0-1.2-0.1-1.8-0.4
			c-5.3-2.8-10.5-4.7-18.3-4.7c-17.7,0-26.8,11.8-26.8,27.2c0,15.4,9.1,27.2,26.8,27.2c7.8,0,13-1.9,18.3-4.7
			c0.6-0.3,1.3-0.4,1.8-0.4C217,138.6,218.6,140.5,218.5,142.6z"/>
		<path class="st4" d="M280,132.9c0,11.3-10.1,19.5-25.6,19.5c-10,0-18-2.3-23.8-4.8c-1.5-0.6-2.8-2.3-2.8-4.1
			c0-2.2,1.6-4.2,4.1-4.2c0.6,0,1.2,0.1,1.9,0.4c4.5,2,11.1,4.1,19.7,4.1c9.9,0,17.5-2.8,17.5-11.5c0-14.8-42.5-6.6-42.5-31.2
			c0-11.1,9-20.5,25.9-20.5c7.8,0,14.5,1.3,19.9,3.3c1.4,0.5,2.8,1.6,2.8,4c0,2-1.5,4.2-4,4.2c-0.5,0-1.1-0.2-1.6-0.4
			c-4.6-1.6-10-2.7-16.1-2.7c-10.1,0-17.8,3.9-17.8,11.4C237.5,117.7,280,106.5,280,132.9z"/>
		<path class="st4" d="M341.6,132.9c0,11.3-10.1,19.5-25.6,19.5c-10,0-18-2.3-23.8-4.8c-1.5-0.6-2.8-2.3-2.8-4.1
			c0-2.2,1.6-4.2,4.1-4.2c0.6,0,1.2,0.1,1.9,0.4c4.5,2,11.1,4.1,19.7,4.1c9.9,0,17.5-2.8,17.5-11.5c0-14.8-42.5-6.6-42.5-31.2
			c0-11.1,9-20.5,25.9-20.5c7.8,0,14.5,1.3,19.9,3.3c1.4,0.5,2.8,1.6,2.8,4c0,2-1.5,4.2-4,4.2c-0.5,0-1.1-0.2-1.6-0.4
			c-4.6-1.6-10-2.7-16.1-2.7c-10.1,0-17.8,3.9-17.8,11.4C299.1,117.7,341.6,106.5,341.6,132.9z"/>
	</g>
	<g class="st3">
		<path class="st5" d="M328.9,254v130c0,21.5-33.6,39-75,39s-75-17.5-75-39V254c0,21.5,33.6,39,75,39S328.9,275.5,328.9,254z"/>
		<ellipse class="st5" cx="253.9" cy="254" rx="75" ry="39"/>
		<path class="st6" d="M314,262.8c-8.5,10.9-32.2,18.7-60.2,18.7c-27.4,0-50.7-7.5-59.6-18c0.8-2.5,3.6-3.9,6.3-4.9
			c2.1-0.8,5-1.6,7-1.6c0.7,0,1.2,0.1,1.8,0.3c1.3,0.4,2.1,1.1,2.7,1.6c0.3-0.2,0.7-0.5,1.1-1c0.3-0.3,0.6-0.7,0.9-1.1
			c1.3-1.6,2.9-3.7,5.4-4.7c0.8-0.3,1.7-0.5,2.6-0.5c1.8,0,3.5,0.6,4.9,1.7c4.8-2.8,9.9-5,15.3-5c1.2,0,2.4,0.1,3.6,0.3
			c1.3,0.3,2.6,0.7,3.8,1c1.5,0.5,3,0.9,4.1,0.9c0.4,0,0.7-0.1,1-0.2c0.5-0.2,1.2-0.7,2-1.3c1.2-0.9,2.6-1.9,4.5-2.5
			c0.9-0.3,1.9-0.4,2.8-0.4c2.7,0,5.1,1,7.2,2c1.6,0.7,3.1,1.4,4.2,1.4h0.1c0.8,0,1.8-0.4,2.9-0.9c0.8-0.3,1.6-0.7,2.5-0.9
			c1.1-0.3,2.3-0.5,3.4-0.5c3.1,0,5.7,1.3,7.2,3.6c0.7,1.1,1,2.2,1.3,3.1c0.1,0.4,0.2,0.8,0.3,1c0.3,0.6,2.1,0.7,2.9,0.7
			c0.9,0,1.9-0.1,2.8-0.2c0.3,0,0.5,0,0.8,0c3.3,0,9.4,1.5,12.5,4.9C313.2,261.1,313.7,262,314,262.8z"/>
		<path class="st5" d="M317.3,254c0,3.1-1.2,6-3.3,8.8c-8.5,10.9-32.2,18.7-60.2,18.7c-27.4,0-50.7-7.5-59.6-18
			c-2.5-3-3.9-6.1-3.9-9.5c0-15.2,28.4-27.5,63.5-27.5C288.9,226.5,317.3,238.8,317.3,254z"/>
		<path class="st7" d="M303.9,321v49.6c-12.5,7.6-30.2,12.4-50,12.4s-37.5-4.8-50-12.4V321c12.5,7.6,30.2,12.4,50,12.4
			S291.4,328.6,303.9,321z"/>
		<path id="SVGID_x5F_1_x5F_" class="st8" d="M203.9,354.1c12.5,7.6,30.2,12.4,50,12.4s37.5-4.8,50-12.4"/>
		<text>		<textPath  xlink:href="#SVGID_x5F_1_x5F_" startOffset="0%">
<tspan  class="st6" style="font-family:'VarelaRound'; font-size:35px; letter-spacing:100;">CSS</tspan>		</textPath>
</text>
		<path id="SVGID_x5F_2_x5F_" class="st8" d="M204.1,363.5c12.5,7.6,30.2,12.4,50,12.4s37.5-4.8,50-12.4"/>
		<text>		<textPath  xlink:href="#SVGID_x5F_2_x5F_" startOffset="0%">
<tspan  class="st6" style="font-family:'VarelaRound'; font-size:8px; letter-spacing:100;">LEO DELSART</tspan>		</textPath>
</text>
	</g>
</g>
<g class="st2">
	<g class="st3">
		<circle class="st0" cx="250" cy="250" r="250"/>
	</g>
	<g class="st3">
		<path class="st9" d="M161.9,330.2c0,44.5,24,82.3,57.6,96.9c1.3,0.6,2.8,0.8,4.2,0.8h52.5c1.5,0,2.9-0.3,4.2-0.8
			c33.6-14.5,57.6-52.4,57.6-96.9"/>
		<g>
			<path class="st9" d="M338.1,330.2c0,24.9-39.4,45.1-88.1,45.1c-48.6,0-88.1-20.2-88.1-45.1c0-24.9,39.4-45.1,88.1-45.1
				C298.7,285.1,338.1,305.3,338.1,330.2z"/>
			<path class="st9" d="M324.3,330.3c0,18.9-33.3,34.1-74.3,34.1c-41,0-74.3-15.3-74.3-34.1c0-18.8,33.3-34.1,74.3-34.1
				C291.1,296.1,324.3,311.4,324.3,330.3z"/>
		</g>
		<g>
			<path class="st10" d="M247.5,348.5L247.5,348.5L247.5,348.5L247.5,348.5c-41-54.2,69.3-89.4,42.4-138.5l0,0l0,0l0,0l0,0
				C330.9,264.1,220.6,299.4,247.5,348.5L247.5,348.5z"/>
			<path class="st10" d="M247.5,348.5L247.5,348.5L247.5,348.5L247.5,348.5c-53.7-24,25.3-92.4-15.4-117.9l0,0l0,0l0,0l0,0
				C285.8,254.6,206.7,323,247.5,348.5L247.5,348.5z"/>
		</g>
		<path class="st11" d="M320.7,340.8L320.7,340.8c-9.7,13.7-37.7,23.5-70.7,23.5c-32.6,0-60.3-9.6-70.3-23.1c1.4-3,4.6-5.5,7.9-6.2
			c2-0.4,4.1-0.2,6.1-0.6c7.4-1.2,12.9-8.8,20.4-8.6c4.1,0.2,7.9,2.7,12,2.7c5.8-0.1,10-5.2,15.3-7.4c4.3-1.8,9.4-1.7,13.5,0.4
			c3.6,1.8,6.5,4.9,10.3,6c6.6,1.8,13.6-2.8,20.3-1.3c4,0.8,7.2,3.7,11.1,4.9c4.1,1.2,8.6,0.5,12.9,1.2
			C313.8,333.3,321.6,336.7,320.7,340.8z"/>
		<g>
			<g>
				<path class="st12" d="M247.5,348.5L247.5,348.5L247.5,348.5L247.5,348.5c-41-54.2,69.3-89.4,42.4-138.5l0,0l0,0l0,0l0,0
					C330.9,264.1,220.6,299.4,247.5,348.5L247.5,348.5z"/>
			</g>
			<g>
				<path class="st12" d="M247.5,348.5L247.5,348.5L247.5,348.5L247.5,348.5c-53.7-24,25.3-92.4-15.4-117.9l0,0l0,0l0,0l0,0
					C285.8,254.6,206.7,323,247.5,348.5L247.5,348.5z"/>
			</g>
		</g>
		<path class="st13" d="M197.9,396.5c-12.9-4.4-22.1-10.5-25.4-17.4"/>
		<path class="st13" d="M259.4,403.9c11.4-0.5,22.1-2,31.5-4.2"/>
		<path class="st13" d="M305.9,395c10.9-4.3,18.6-9.8,21.6-15.9"/>
		<path class="st13" d="M212.9,400.5c9.5,2,20.2,3.2,31.5,3.5"/>
	</g>
	<g class="st3">
		<g>
			<path class="st12" d="M164.7,85.4v42.7c0,19.1-10.4,24-20.6,24c-5.1,0-9.6-1.3-13.3-3.4c-1.2-0.7-2.2-1.8-2.2-3.7
				c0-2.1,1.5-4.1,3.8-4.1c0.5,0,1.2,0.1,1.8,0.4c2.7,1.3,5.8,2.2,9.3,2.2c6,0,12.1-2.2,12.1-14.8V85.4c0-2.5,2-4.6,4.5-4.6
				S164.7,82.9,164.7,85.4z"/>
		</g>
		<g>
			<path class="st12" d="M241.2,147.2c0,2.5-1.7,4.5-4.5,4.5c-1.9,0-3.5-1-4.3-2.8l-6.5-15.6h-34l-6.5,15.6
				c-0.8,1.8-2.4,2.8-4.3,2.8c-2.8,0-4.5-2-4.5-4.5c0-0.6,0.2-1.3,0.5-2l25.5-60.2c0.9-2.1,2.8-4.1,5.8-4.1h1c3,0,4.9,2,5.8,4.1
				l25.5,60.2C241,145.9,241.2,146.6,241.2,147.2z M222.4,125l-13.5-32.5L195.3,125H222.4z"/>
		</g>
		<g>
			<path class="st12" d="M273.9,142.6l23.5-58.6c0.8-1.9,2.5-3.1,4.3-3.1c2.8,0,4.5,1.9,4.5,4.6c0,0.5-0.1,1.2-0.3,1.7l-24.7,59.9
				c-1.3,2.9-3.4,4.6-6.2,4.6h-2.2c-2.8,0-4.9-1.7-6.2-4.6l-24.7-59.9c-0.2-0.5-0.3-1.2-0.3-1.7c0-2.7,1.7-4.6,4.5-4.6
				c1.8,0,3.5,1.2,4.3,3.1L273.9,142.6z"/>
		</g>
		<g>
			<path class="st12" d="M371.5,147.2c0,2.5-1.7,4.5-4.5,4.5c-1.9,0-3.5-1-4.3-2.8l-6.5-15.6h-34l-6.5,15.6
				c-0.8,1.8-2.4,2.8-4.3,2.8c-2.8,0-4.5-2-4.5-4.5c0-0.6,0.2-1.3,0.5-2l25.5-60.2c0.9-2.1,2.8-4.1,5.8-4.1h1c3,0,4.9,2,5.8,4.1
				l25.5,60.2C371.3,145.9,371.5,146.6,371.5,147.2z M352.7,125l-13.5-32.5L325.6,125H352.7z"/>
		</g>
	</g>
</g>
<g class="st2">
	<g class="st3">
		<circle class="st0" cx="250" cy="250" r="250"/>
	</g>
	<g class="st3">
		<path class="st14" d="M141,386.8c5.4-3.2,11.1-6,17-8.2c2.5-0.9,5-1.8,7.6-2.5c2.6-0.7,5.2-1.4,7.8-1.9c5-1,10.2-1.7,15.4-2
			c2.6-0.2,5.3-0.2,8-0.2c0,2.7,0,5.4-0.2,8c-0.3,5.1-0.9,10.1-1.9,14.9c-0.6,2.8-1.2,5.6-2,8.3c-0.7,2.4-1.5,4.8-2.3,7.1
			c-2.3,6.2-5.1,12.1-8.4,17.6"/>
		<path class="st14" d="M196.9,372L196.9,372L196.9,372c59.6,1,107.1-46.5,106.1-106.1l0,0l0,0C243.4,264.9,195.9,312.4,196.9,372z"
			/>
		<path class="st14" d="M359,251.1c-5.4,3.2-11.1,6-17,8.2c-2.5,0.9-5,1.8-7.6,2.5c-2.6,0.7-5.1,1.4-7.8,1.9c-5,1-10.2,1.7-15.4,2
			c-2.6,0.2-5.3,0.2-8,0.2c-0.1-2.7,0-5.4,0.2-8c0.3-5.1,0.9-10.1,1.9-14.9c0.6-2.8,1.2-5.6,2-8.3c0.7-2.4,1.5-4.8,2.3-7.1
			c2.3-6.2,5.1-12,8.4-17.6"/>
		<g>
			<line class="st15" x1="165.7" y1="376.1" x2="192.8" y2="403.3"/>
			<g>
				<line class="st15" x1="201" y1="340.7" x2="228.2" y2="367.9"/>
				<line class="st15" x1="211.7" y1="316.1" x2="252.9" y2="357.2"/>
				<line class="st15" x1="227.3" y1="296.2" x2="272.7" y2="341.7"/>
				<line class="st15" x1="247.1" y1="280.7" x2="288.2" y2="321.8"/>
				<line class="st15" x1="271.8" y1="270" x2="299" y2="297.2"/>
			</g>
			<line class="st15" x1="307.1" y1="234.6" x2="334.3" y2="261.8"/>
			<g>
				<circle class="st16" cx="193.3" cy="402.8" r="8"/>
				<circle class="st16" cx="165.7" cy="376.1" r="8"/>
				<circle class="st16" cx="299.4" cy="296.7" r="8"/>
				<circle class="st16" cx="271.8" cy="270" r="8"/>
				<circle class="st16" cx="247.1" cy="280.7" r="8"/>
				<circle class="st16" cx="227.3" cy="296.2" r="8"/>
				<circle class="st16" cx="288.3" cy="321.8" r="8"/>
				<circle class="st16" cx="272.7" cy="341.7" r="8"/>
				<circle class="st16" cx="200.6" cy="341.2" r="8"/>
				<circle class="st16" cx="196.9" cy="372" r="8"/>
				<circle class="st16" cx="228.2" cy="367.9" r="8"/>
				<circle class="st16" cx="252.9" cy="357.2" r="8"/>
				<circle class="st16" cx="211.8" cy="316.1" r="8"/>
				<circle class="st16" cx="306.7" cy="235.1" r="8"/>
				<circle class="st16" cx="303.1" cy="265.9" r="8"/>
				<circle class="st16" cx="334.3" cy="261.8" r="8"/>
			</g>
		</g>
	</g>
	<g class="st3">
		<path class="st16" d="M166.3,85.7v61.7c0,2.5-2.1,4.5-4.6,4.5c-2.5,0-4.5-2-4.5-4.5v-26.6h-37.9v26.6c0,2.5-2.1,4.5-4.6,4.5
			s-4.5-2-4.5-4.5V85.7c0-2.5,2-4.6,4.5-4.6s4.6,2.1,4.6,4.6v26.6h37.9V85.7c0-2.5,2-4.6,4.5-4.6C164.2,81.1,166.3,83.2,166.3,85.7z
			"/>
		<path class="st16" d="M235.7,85.9c0,2.4-1.9,4.2-4.3,4.2h-20.3v57.3c0,2.5-2.1,4.5-4.6,4.5s-4.5-2-4.5-4.5V90.1h-20.4
			c-2.4,0-4.2-1.8-4.2-4.2s1.8-4.3,4.2-4.3h49.8C233.8,81.6,235.7,83.5,235.7,85.9z"/>
		<path class="st16" d="M324,87.7v59.7c0,2.5-2,4.5-4.5,4.5s-4.6-2-4.6-4.5V90.6l-23.1,57.1c-1.1,2.5-3.5,4.2-6.4,4.2
			s-5.3-1.7-6.4-4.2l-23.1-57.1v56.8c0,2.5-2.1,4.5-4.6,4.5s-4.5-2-4.5-4.5V87.7c0-3.6,2.9-6.6,6.5-6.6h3.3c2.7,0,5.1,1.8,6.1,4.2
			l22.7,56.6l22.7-56.6c1-2.4,3.4-4.2,6.1-4.2h3.3C321.1,81.1,324,84.1,324,87.7z"/>
		<path class="st16" d="M389.8,146.9c0,2.5-2.1,4.5-4.6,4.5h-35.5c-3.5,0-6.3-2.8-6.3-6.3V85.7c0-2.5,2-4.6,4.5-4.6s4.6,2.1,4.6,4.6
			v56.6h32.7C387.7,142.3,389.8,144.4,389.8,146.9z"/>
	</g>
</g>
<g class="st2">
	<g class="st3">
		<circle class="st0" cx="250" cy="250" r="250"/>
	</g>
	<g class="st3">
		<path class="st17" d="M315,368.3v17.3c0,18.7-29.1,33.8-65,33.8c-35.9,0-65-15.1-65-33.8v-17.3"/>
		<ellipse class="st17" cx="250" cy="368.3" rx="65" ry="33.8"/>
		<path class="st18" d="M315,281.6c0,8.1-5.5,15.6-14.7,21.4c-0.6,0.4-1.1,0.7-1.7,1.1c-10.6,6.2-25.4,10.3-42,11.1
			c-2.1,0.1-4.3,0.2-6.5,0.2c-2.2,0-4.4-0.1-6.5-0.2c-16.7-0.9-31.5-5-42-11.2c-0.6-0.3-1.2-0.7-1.7-1c-9.2-5.8-14.7-13.3-14.7-21.4
			c0-4.6,1.7-8.9,4.9-12.9l0,0l60.1-67.3l60,67.2C313.2,272.6,315,277,315,281.6z"/>
		<line class="st17" x1="310.1" y1="268.7" x2="310" y2="268.6"/>
		<line class="st19" x1="218.4" y1="271.5" x2="207.8" y2="295"/>
		<polyline class="st19" points="226.7,253.2 250,201.4 250,201.4 273.3,253.2 		"/>
		<line class="st19" x1="292.2" y1="295" x2="281.6" y2="271.5"/>
		<line class="st20" x1="250" y1="305.7" x2="250" y2="277"/>
		<polyline class="st20" points="250,257.1 250,201.4 250,201.4 		"/>
		<path class="st17" d="M312.3,271.8c0,18.7-26.4,33.8-62.3,33.8c-35.9,0-62.3-15.1-62.3-33.8"/>
		<path class="st21" d="M256.5,315.2v51.3h0v1.7c0,1.9-2.9,3.4-6.5,3.4c-3.6,0-6.5-1.5-6.5-3.4v-1.7h0v-51.3
			c2.1,0.1,4.3,0.2,6.5,0.2C252.2,315.4,254.4,315.3,256.5,315.2z"/>
		<path class="st22" d="M298.4,255.5c-1.2,6.4-7.4,12.1-16.8,16c-8.3,3.4-19.2,5.5-31.6,5.5h0c-12.3,0-23.2-2.1-31.6-5.5
			c-9.4-3.9-15.6-9.5-16.8-15.9l12.2-13.7c1.3,4.5,5.9,8.5,12.8,11.3c6.2,2.5,14.3,4,23.3,4h0c9.1,0,17.1-1.5,23.3-4
			c6.9-2.8,11.5-6.7,12.9-11.3L298.4,255.5z"/>
		<path class="st23" d="M211.4,257.7c-2.5-2.4-4-5-4.6-7.8"/>
		<path class="st23" d="M293.1,249.9c-0.5,2.8-2.1,5.4-4.6,7.8"/>
		<path id="SVGID_x5F_3_x5F_" class="st8" d="M201.6,248.6c1.2,6.4,7.4,12,16.8,15.9c8.3,3.4,19.2,5.5,31.6,5.5h0
			c12.3,0,23.2-2.1,31.6-5.5c9.4-3.9,15.6-9.6,16.8-16"/>
		<text>		<textPath  xlink:href="#SVGID_x5F_3_x5F_" startOffset="0%">
<tspan  class="st21" style="font-family:'VarelaRound'; font-size:10.4017px; letter-spacing:100;">JAVASCRIPT</tspan>		</textPath>
</text>
		<g>
			<g>
				<ellipse class="st24" cx="200.6" cy="363.2" rx="8.9" ry="4.6"/>
				<path class="st24" d="M209.5,363.2c0,5.8-4,10.5-8.9,10.5c-4.9,0-8.9-4.7-8.9-10.5"/>
			</g>
			<g>
				<ellipse class="st24" cx="250" cy="382.9" rx="8.9" ry="4.6"/>
				<path class="st24" d="M258.9,382.9c0,5.8-4,10.5-8.9,10.5c-4.9,0-8.9-4.7-8.9-10.5"/>
			</g>
			<g>
				<ellipse class="st24" cx="299.4" cy="362.9" rx="8.9" ry="4.6"/>
				<path class="st24" d="M308.3,362.9c0,5.8-4,10.5-8.9,10.5c-4.9,0-8.9-4.7-8.9-10.5"/>
			</g>
			<g>
				<ellipse class="st24" cx="250" cy="342.5" rx="8.9" ry="4.6"/>
				<path class="st24" d="M258.9,342.5c0,5.8-4,10.5-8.9,10.5c-4.9,0-8.9-4.7-8.9-10.5"/>
			</g>
			<path class="st21" d="M201.5,304.1v63.4h-1.7V303C200.3,303.4,200.9,303.7,201.5,304.1z"/>
			<rect x="249.1" y="369.7" class="st21" width="1.7" height="18"/>
			<path class="st21" d="M300.3,303v64.5h-1.7v-63.4C299.1,303.7,299.7,303.4,300.3,303z"/>
		</g>
	</g>
	<g class="st3">
		<path class="st21" d="M229.8,85.2v42.7c0,19.1-10.4,24-20.6,24c-5.1,0-9.6-1.3-13.3-3.4c-1.2-0.7-2.2-1.8-2.2-3.7
			c0-2.1,1.5-4.1,3.8-4.1c0.5,0,1.2,0.1,1.8,0.4c2.7,1.3,5.8,2.2,9.3,2.2c6,0,12.1-2.2,12.1-14.8V85.2c0-2.5,2-4.6,4.5-4.6
			C227.7,80.6,229.8,82.7,229.8,85.2z"/>
		<path class="st21" d="M306.4,132.4c0,11.3-10.1,19.5-25.6,19.5c-10,0-18-2.3-23.8-4.8c-1.5-0.6-2.8-2.3-2.8-4.1
			c0-2.2,1.6-4.2,4.1-4.2c0.6,0,1.2,0.1,1.9,0.4c4.5,2,11.1,4.1,19.7,4.1c9.9,0,17.5-2.8,17.5-11.5c0-14.8-42.5-6.6-42.5-31.2
			c0-11.1,9-20.5,25.9-20.5c7.8,0,14.5,1.3,19.9,3.3c1.4,0.5,2.8,1.6,2.8,4c0,2-1.5,4.2-4,4.2c-0.5,0-1.1-0.2-1.6-0.4
			c-4.6-1.6-10-2.7-16.1-2.7c-10.1,0-17.8,3.9-17.8,11.4C263.9,117.2,306.4,106,306.4,132.4z"/>
	</g>
</g>
<g class="st2">
	<g class="st3">
		<circle class="st0" cx="250" cy="250" r="250"/>
	</g>
	<g class="st3">
		<path class="st21" d="M229.8,85.2v42.7c0,19.1-10.4,24-20.6,24c-5.1,0-9.6-1.3-13.3-3.4c-1.2-0.7-2.2-1.8-2.2-3.7
			c0-2.1,1.5-4.1,3.8-4.1c0.5,0,1.2,0.1,1.8,0.4c2.7,1.3,5.8,2.2,9.3,2.2c6,0,12.1-2.2,12.1-14.8V85.2c0-2.5,2-4.6,4.5-4.6
			C227.7,80.6,229.8,82.7,229.8,85.2z"/>
		<path class="st21" d="M306.4,132.4c0,11.3-10.1,19.5-25.6,19.5c-10,0-18-2.3-23.8-4.8c-1.5-0.6-2.8-2.3-2.8-4.1
			c0-2.2,1.6-4.2,4.1-4.2c0.6,0,1.2,0.1,1.9,0.4c4.5,2,11.1,4.1,19.7,4.1c9.9,0,17.5-2.8,17.5-11.5c0-14.8-42.5-6.6-42.5-31.2
			c0-11.1,9-20.5,25.9-20.5c7.8,0,14.5,1.3,19.9,3.3c1.4,0.5,2.8,1.6,2.8,4c0,2-1.5,4.2-4,4.2c-0.5,0-1.1-0.2-1.6-0.4
			c-4.6-1.6-10-2.7-16.1-2.7c-10.1,0-17.8,3.9-17.8,11.4C263.9,117.2,306.4,106,306.4,132.4z"/>
	</g>
	<g class="st3">
		<g>
			<path class="st19" d="M261.5,211.1c-3.8-0.4-7.6-0.7-11.5-0.7s-7.8,0.2-11.5,0.7l1.7-9.2c3.2-0.3,6.5-0.5,9.8-0.5
				s6.6,0.1,9.8,0.5L261.5,211.1z"/>
			<path class="st19" d="M222.6,214.2c-3.7,1-7.3,2.3-10.9,3.8s-7.1,3.2-10.4,5l-2-9.2c2.9-1.5,5.9-2.9,8.9-4.2s6.1-2.4,9.3-3.3
				L222.6,214.2z"/>
			<path class="st19" d="M187.9,232c-3,2.4-5.9,4.9-8.6,7.7s-5.3,5.6-7.7,8.6l-5.3-7.7c2.1-2.5,4.3-4.9,6.6-7.3
				c2.3-2.3,4.8-4.6,7.3-6.6L187.9,232z"/>
			<path class="st19" d="M162.6,261.7c-1.9,3.3-3.5,6.8-5,10.4s-2.8,7.2-3.8,10.9l-7.9-5.1c1-3.1,2.1-6.2,3.3-9.3s2.7-6,4.2-8.9
				L162.6,261.7z"/>
			<path class="st19" d="M150.7,298.9c-0.4,3.8-0.7,7.6-0.7,11.5s0.2,7.8,0.7,11.5l-9.2-1.7c-0.3-3.2-0.5-6.5-0.5-9.8
				s0.1-6.6,0.5-9.8L150.7,298.9z"/>
			<path class="st19" d="M153.8,337.8c1,3.7,2.3,7.3,3.8,10.9s3.2,7.1,5,10.4l-9.2,2c-1.5-2.9-2.9-5.9-4.2-8.9s-2.4-6.1-3.3-9.3
				L153.8,337.8z"/>
			<path class="st19" d="M171.6,372.5c2.4,3,4.9,5.9,7.7,8.6c2.8,2.8,5.6,5.3,8.6,7.7l-7.7,5.3c-2.5-2.1-4.9-4.3-7.3-6.6
				c-2.3-2.3-4.6-4.8-6.6-7.3L171.6,372.5z"/>
			<path class="st19" d="M201.3,397.8c3.3,1.9,6.8,3.5,10.4,5c3.6,1.5,7.2,2.8,10.9,3.8l-5.1,7.9c-3.1-1-6.2-2.1-9.3-3.3
				c-3.1-1.3-6-2.7-8.9-4.2L201.3,397.8z"/>
			<path class="st19" d="M238.5,409.7c3.8,0.4,7.6,0.7,11.5,0.7s7.8-0.2,11.5-0.7l-1.7,9.2c-3.2,0.3-6.5,0.5-9.8,0.5
				s-6.6-0.1-9.8-0.5L238.5,409.7z"/>
			<path class="st19" d="M277.4,406.6c3.7-1,7.3-2.3,10.9-3.8c3.6-1.5,7.1-3.2,10.4-5l2,9.2c-2.9,1.5-5.9,2.9-8.9,4.2
				c-3.1,1.3-6.1,2.4-9.3,3.3L277.4,406.6z"/>
			<path class="st19" d="M312.1,388.8c3-2.4,5.9-4.9,8.6-7.7c2.8-2.8,5.3-5.6,7.7-8.6l5.3,7.7c-2.1,2.5-4.3,4.9-6.6,7.3
				s-4.8,4.6-7.3,6.6L312.1,388.8z"/>
			<path class="st19" d="M337.4,359.1c1.9-3.3,3.5-6.8,5-10.4c1.5-3.6,2.8-7.2,3.8-10.9l7.9,5.1c-1,3.1-2.1,6.2-3.3,9.3
				c-1.3,3.1-2.7,6-4.2,8.9L337.4,359.1z"/>
			<path class="st19" d="M349.3,321.9c0.4-3.8,0.7-7.6,0.7-11.5s-0.2-7.8-0.7-11.5l9.2,1.7c0.3,3.2,0.5,6.5,0.5,9.8
				s-0.1,6.6-0.5,9.8L349.3,321.9z"/>
			<path class="st19" d="M346.2,283c-1-3.7-2.3-7.3-3.8-10.9c-1.5-3.6-3.2-7.1-5-10.4l9.2-2c1.5,2.9,2.9,5.9,4.2,8.9
				c1.3,3.1,2.4,6.1,3.3,9.3L346.2,283z"/>
			<path class="st19" d="M328.4,248.3c-2.4-3-4.9-5.9-7.7-8.6c-2.8-2.8-5.6-5.3-8.6-7.7l7.7-5.3c2.5,2.1,4.9,4.3,7.3,6.6
				c2.3,2.3,4.6,4.8,6.6,7.3L328.4,248.3z"/>
			<path class="st19" d="M298.7,223c-3.3-1.9-6.8-3.5-10.4-5s-7.2-2.8-10.9-3.8l5.1-7.9c3.1,1,6.2,2.1,9.3,3.3s6,2.7,8.9,4.2
				L298.7,223z"/>
		</g>
		<g>
			<path class="st18" d="M350,310.4c0,27.6-11.2,52.6-29.3,70.7c-18.1,18.1-43.1,29.3-70.7,29.3c-55.2,0-100-44.8-100-100
				c0-27.6,11.2-52.6,29.3-70.7c15.5-15.5,36.2-26,59.2-28.6v0c3.8-0.4,7.6-0.7,11.5-0.7s7.8,0.2,11.5,0.7v0
				c23,2.6,43.6,13.1,59.2,28.6C338.8,257.8,350,282.8,350,310.4z"/>
			<g>
				<path class="st24" d="M250,402.9L250,402.9c-51.1,0-92.5-41.4-92.5-92.5v0c0-51.1,41.4-92.5,92.5-92.5h0
					c51.1,0,92.5,41.4,92.5,92.5v0C342.5,361.5,301.1,402.9,250,402.9z"/>
			</g>
		</g>
		<g>
			<g>
				<path class="st24" d="M250,330.4c-11,0-20-9-20-20c0-5.5,2.2-10.5,5.9-14.1c3.6-3.6,8.6-5.9,14.1-5.9c11,0,20,9,20,20
					S261,330.4,250,330.4z"/>
			</g>
			<g>
				<path class="st24" d="M250,335.4c-13.8,0-25-11.2-25-25c0-6.9,2.8-13.2,7.3-17.7c4.5-4.5,10.8-7.3,17.7-7.3
					c13.8,0,25,11.2,25,25S263.8,335.4,250,335.4z"/>
			</g>
		</g>
		<g>
			<path class="st24" d="M234.5,228.1l-1.7,0.3c-0.4,0.1-0.6,0.4-0.6,0.7l0,4.5l7.8,39.2l1.7,4.1c0.1,0.3,0.5,0.5,0.8,0.4l1.7-0.3
				c0.4-0.1,0.6-0.4,0.6-0.7l0-4.5l-7.8-39.2l-1.7-4.1C235.2,228.2,234.9,228,234.5,228.1z"/>
			<path class="st24" d="M204.2,240.3l-1.5,1c-0.3,0.2-0.4,0.6-0.3,0.9l1.7,4.1l22.2,33.3l3.2,3.2c0.3,0.3,0.6,0.3,0.9,0.1l1.5-1
				c0.3-0.2,0.4-0.6,0.3-0.9l-1.7-4.1l-22.2-33.3l-3.2-3.2C204.9,240.1,204.5,240.1,204.2,240.3z"/>
			<path class="st24" d="M180.9,263.1l-1,1.5c-0.2,0.3-0.2,0.7,0.1,0.9l3.2,3.2l33.3,22.2l4.1,1.7c0.3,0.1,0.7,0,0.9-0.3l1-1.5
				c0.2-0.3,0.2-0.7-0.1-0.9l-3.2-3.2l-33.3-22.2l-4.1-1.7C181.4,262.7,181.1,262.8,180.9,263.1z"/>
			<path class="st24" d="M168,293.2l-0.3,1.7c-0.1,0.4,0.1,0.7,0.4,0.8l4.1,1.7l39.2,7.8l4.5,0c0.4,0,0.7-0.3,0.7-0.6l0.3-1.7
				c0.1-0.4-0.1-0.7-0.4-0.8l-4.1-1.7l-39.2-7.8l-4.5,0C168.4,292.6,168.1,292.8,168,293.2z"/>
			<path class="st24" d="M167.7,325.9l0.3,1.7c0.1,0.4,0.4,0.6,0.7,0.6l4.5,0l39.2-7.8l4.1-1.7c0.3-0.1,0.5-0.5,0.4-0.8l-0.3-1.7
				c-0.1-0.4-0.4-0.6-0.7-0.6l-4.5,0l-39.2,7.8l-4.1,1.7C167.8,325.2,167.6,325.5,167.7,325.9z"/>
			<path class="st24" d="M179.9,356.2l1,1.5c0.2,0.3,0.6,0.4,0.9,0.3l4.1-1.7l33.3-22.2l3.2-3.2c0.3-0.3,0.3-0.6,0.1-0.9l-1-1.5
				c-0.2-0.3-0.6-0.4-0.9-0.3l-4.1,1.7l-33.3,22.2l-3.2,3.2C179.7,355.5,179.7,355.9,179.9,356.2z"/>
			<path class="st24" d="M202.7,379.5l1.5,1c0.3,0.2,0.7,0.2,0.9-0.1l3.2-3.2l22.2-33.3l1.7-4.1c0.1-0.3,0-0.7-0.3-0.9l-1.5-1
				c-0.3-0.2-0.7-0.2-0.9,0.1l-3.2,3.2l-22.2,33.3l-1.7,4.1C202.3,379,202.4,379.3,202.7,379.5z"/>
			<path class="st24" d="M232.8,392.4l1.7,0.3c0.4,0.1,0.7-0.1,0.8-0.4l1.7-4.1l7.8-39.2l0-4.5c0-0.4-0.3-0.7-0.6-0.7l-1.7-0.3
				c-0.4-0.1-0.7,0.1-0.8,0.4l-1.7,4.1l-7.8,39.2l0,4.5C232.2,392,232.4,392.3,232.8,392.4z"/>
			<path class="st24" d="M265.5,392.7l1.7-0.3c0.4-0.1,0.6-0.4,0.6-0.7l0-4.5l-7.8-39.2l-1.7-4.1c-0.1-0.3-0.5-0.5-0.8-0.4l-1.7,0.3
				c-0.4,0.1-0.6,0.4-0.6,0.7l0,4.5l7.8,39.2l1.7,4.1C264.8,392.6,265.1,392.8,265.5,392.7z"/>
			<path class="st24" d="M295.8,380.5l1.5-1c0.3-0.2,0.4-0.6,0.3-0.9l-1.7-4.1l-22.2-33.3l-3.2-3.2c-0.3-0.3-0.6-0.3-0.9-0.1l-1.5,1
				c-0.3,0.2-0.4,0.6-0.3,0.9l1.7,4.1l22.2,33.3l3.2,3.2C295.1,380.7,295.5,380.7,295.8,380.5z"/>
			<path class="st24" d="M319.1,357.7l1-1.5c0.2-0.3,0.2-0.7-0.1-0.9l-3.2-3.2l-33.3-22.2l-4.1-1.7c-0.3-0.1-0.7,0-0.9,0.3l-1,1.5
				c-0.2,0.3-0.2,0.7,0.1,0.9l3.2,3.2l33.3,22.2l4.1,1.7C318.6,358.1,318.9,358,319.1,357.7z"/>
			<path class="st24" d="M332,327.6l0.3-1.7c0.1-0.4-0.1-0.7-0.4-0.8l-4.1-1.7l-39.2-7.8l-4.5,0c-0.4,0-0.7,0.3-0.7,0.6l-0.3,1.7
				c-0.1,0.4,0.1,0.7,0.4,0.8l4.1,1.7l39.2,7.8l4.5,0C331.6,328.2,331.9,328,332,327.6z"/>
			<path class="st24" d="M332.3,294.9l-0.3-1.7c-0.1-0.4-0.4-0.6-0.7-0.6l-4.5,0l-39.2,7.8l-4.1,1.7c-0.3,0.1-0.5,0.5-0.4,0.8
				l0.3,1.7c0.1,0.4,0.4,0.6,0.7,0.6l4.5,0l39.2-7.8l4.1-1.7C332.2,295.6,332.4,295.3,332.3,294.9z"/>
			<path class="st24" d="M320.1,264.6l-1-1.5c-0.2-0.3-0.6-0.4-0.9-0.3l-4.1,1.7l-33.3,22.2l-3.2,3.2c-0.3,0.3-0.3,0.6-0.1,0.9
				l1,1.5c0.2,0.3,0.6,0.4,0.9,0.3l4.1-1.7l33.3-22.2l3.2-3.2C320.3,265.3,320.3,264.9,320.1,264.6z"/>
			<path class="st24" d="M297.3,241.3l-1.5-1c-0.3-0.2-0.7-0.2-0.9,0.1l-3.2,3.2l-22.2,33.3l-1.7,4.1c-0.1,0.3,0,0.7,0.3,0.9l1.5,1
				c0.3,0.2,0.7,0.2,0.9-0.1l3.2-3.2l22.2-33.3l1.7-4.1C297.7,241.8,297.6,241.5,297.3,241.3z"/>
			<path class="st24" d="M267.2,228.4l-1.7-0.3c-0.4-0.1-0.7,0.1-0.8,0.4l-1.7,4.1l-7.8,39.2l0,4.5c0,0.4,0.3,0.7,0.6,0.7l1.7,0.3
				c0.4,0.1,0.7-0.1,0.8-0.4l1.7-4.1l7.8-39.2l0-4.5C267.8,228.8,267.6,228.5,267.2,228.4z"/>
		</g>
	</g>
</g>
</svg>
